# xmcd CD database file
#
# Track frame offsets:
#	150
#	17212
#	33997
#
# Disc length: 709 seconds
#
# Revision: 1
# Processed by: cddbd v1.4PL0 Copyright (c) Steve Scherf et al.
# Submitted via: CDex 1.40Beta9
#
DISCID=1b02c303
DTITLE=EAV - The Himbeer Teddies
DYEAR=1998
DGENRE=Pop
TTITLE0=Der Wein von Mykonos
TTITLE1=Die Pille für den Mann
TTITLE2=Himbeerland
EXTD=YEAR: 1998 ID3G: 13
EXTT0=
EXTT1=
EXTT2=
PLAYORDER=
